<svg width="126" height="40" viewBox="0 0 126 40" fill="none" xmlns="http://www.w3.org/2000/svg">
<path d="M13.1303 32.3848C12.1916 32.3848 11.1996 32.2355 10.1543 31.9368C9.10895 31.6382 8.08495 31.1902 7.08229 30.5928C6.07962 29.9955 5.16229 29.2382 4.33029 28.3208C3.51962 27.3822 2.86895 26.2942 2.37829 25.0568C1.90895 23.7982 1.67429 22.3688 1.67429 20.7688C1.67429 19.2328 1.90895 17.8675 2.37829 16.6728C2.86895 15.4568 3.51962 14.4008 4.33029 13.5048C5.14095 12.6088 6.04762 11.8728 7.05029 11.2968C8.05295 10.6995 9.08762 10.2622 10.1543 9.98482C11.221 9.68615 12.2343 9.53682 13.1943 9.53682C14.2823 9.53682 15.2316 9.66482 16.0423 9.92082C16.853 10.1768 17.5143 10.4435 18.0263 10.7208C18.5383 10.9768 18.8583 11.1582 18.9863 11.2648C19.3703 11.4995 19.733 11.7662 20.0743 12.0648C20.4156 12.3635 20.597 12.7582 20.6183 13.2488C20.6183 13.5048 20.565 13.7608 20.4583 14.0168C20.373 14.2515 20.2343 14.5075 20.0423 14.7848C19.701 15.2755 19.3703 15.6382 19.0503 15.8728C18.7516 16.0862 18.4423 16.1928 18.1223 16.1928C17.8663 16.1928 17.621 16.1288 17.3863 16.0008C17.173 15.8728 16.8956 15.7022 16.5543 15.4888C16.405 15.3822 16.1916 15.2542 15.9143 15.1048C15.637 14.9342 15.2636 14.7848 14.7943 14.6568C14.325 14.5075 13.7276 14.4328 13.0023 14.4328C12.2556 14.4328 11.4983 14.5715 10.7303 14.8488C9.98362 15.1048 9.29029 15.4995 8.65029 16.0328C8.01029 16.5662 7.49829 17.2488 7.11429 18.0808C6.73029 18.8915 6.53829 19.8408 6.53829 20.9288C6.53829 22.0595 6.73029 23.0302 7.11429 23.8408C7.51962 24.6515 8.04229 25.3235 8.68229 25.8568C9.32229 26.3902 10.0156 26.7955 10.7623 27.0728C11.5303 27.3288 12.277 27.4568 13.0023 27.4568C13.6423 27.4568 14.1863 27.3928 14.6343 27.2648C15.1036 27.1368 15.4983 26.9875 15.8183 26.8168C16.1596 26.6248 16.4476 26.4542 16.6823 26.3048C16.917 26.1555 17.1516 26.0168 17.3863 25.8888C17.6423 25.7608 17.8983 25.6968 18.1543 25.6968C18.453 25.6968 18.7516 25.8142 19.0503 26.0488C19.3703 26.2835 19.6903 26.6568 20.0103 27.1688C20.2023 27.4462 20.3516 27.7235 20.4583 28.0008C20.565 28.2568 20.6076 28.5128 20.5863 28.7688C20.5863 29.2168 20.4156 29.5902 20.0743 29.8888C19.733 30.1662 19.3703 30.4222 18.9863 30.6568C18.8156 30.7422 18.485 30.9342 17.9943 31.2328C17.5036 31.5102 16.853 31.7662 16.0423 32.0008C15.2316 32.2568 14.261 32.3848 13.1303 32.3848ZM24.9888 32.1288C24.2208 32.1288 23.6661 32.0222 23.3248 31.8088C22.9835 31.5742 22.7701 31.2755 22.6848 30.9128C22.6208 30.5288 22.5888 30.1235 22.5888 29.6968V11.2648C22.5888 10.8382 22.6315 10.4435 22.7168 10.0808C22.8021 9.71815 23.0155 9.43015 23.3568 9.21682C23.6981 8.98215 24.2528 8.86482 25.0208 8.86482C25.8101 8.86482 26.3648 8.98215 26.6848 9.21682C27.0261 9.45149 27.2288 9.75015 27.2928 10.1128C27.3781 10.4755 27.4208 10.8702 27.4208 11.2968V17.8248C27.8048 17.4195 28.2955 17.0355 28.8928 16.6728C29.5115 16.3102 30.2368 16.1288 31.0688 16.1288C32.3915 16.1288 33.5755 16.4702 34.6208 17.1528C35.6875 17.8142 36.5301 18.7315 37.1488 19.9048C37.7888 21.0782 38.1088 22.4222 38.1088 23.9368V29.7288C38.1088 30.1555 38.0661 30.5502 37.9808 30.9128C37.8955 31.2755 37.6928 31.5742 37.3728 31.8088C37.0528 32.0222 36.4875 32.1288 35.6768 32.1288C34.9301 32.1288 34.3755 32.0222 34.0128 31.8088C33.6715 31.5742 33.4581 31.2755 33.3728 30.9128C33.3088 30.5288 33.2768 30.1235 33.2768 29.6968V23.9048C33.2768 23.2862 33.1701 22.7635 32.9568 22.3368C32.7435 21.8888 32.4235 21.5368 31.9968 21.2808C31.5915 21.0248 31.0901 20.8968 30.4928 20.8968C29.7035 20.8968 29.0101 21.1422 28.4128 21.6328C27.8368 22.1022 27.5061 22.6782 27.4208 23.3608V29.7288C27.4208 30.1555 27.3781 30.5502 27.2928 30.9128C27.2075 31.2755 26.9941 31.5742 26.6528 31.8088C26.3328 32.0222 25.7781 32.1288 24.9888 32.1288ZM42.9955 32.1288C42.2062 32.1288 41.6409 32.0222 41.2995 31.8088C40.9795 31.5742 40.7769 31.2755 40.6915 30.9128C40.6275 30.5288 40.5955 30.1342 40.5955 29.7288V18.5608C40.5955 18.1342 40.6275 17.7395 40.6915 17.3768C40.7769 17.0142 40.9902 16.7262 41.3315 16.5128C41.6729 16.2782 42.2382 16.1608 43.0275 16.1608C43.7955 16.1608 44.3395 16.2782 44.6595 16.5128C45.0009 16.7475 45.2035 17.0462 45.2675 17.4088C45.3529 17.7715 45.3955 18.1768 45.3955 18.6248V29.7608C45.3955 30.1662 45.3529 30.5608 45.2675 30.9448C45.2035 31.3075 45.0009 31.5955 44.6595 31.8088C44.3395 32.0222 43.7849 32.1288 42.9955 32.1288ZM42.9955 13.8248C42.1849 13.8248 41.6089 13.7075 41.2675 13.4728C40.9262 13.2382 40.7129 12.9288 40.6275 12.5448C40.5635 12.1608 40.5315 11.7555 40.5315 11.3288C40.5315 10.8808 40.5742 10.4755 40.6595 10.1128C40.7449 9.72882 40.9582 9.43015 41.2995 9.21682C41.6409 8.98215 42.2169 8.86482 43.0275 8.86482C43.8169 8.86482 44.3822 8.98215 44.7235 9.21682C45.0649 9.45149 45.2675 9.76082 45.3315 10.1448C45.4169 10.5288 45.4595 10.9342 45.4595 11.3608C45.4595 11.7875 45.4169 12.1928 45.3315 12.5768C45.2675 12.9608 45.0649 13.2702 44.7235 13.5048C44.3822 13.7182 43.8062 13.8248 42.9955 13.8248ZM50.5215 32.1288C49.7535 32.1288 49.1989 32.0115 48.8575 31.7768C48.5162 31.5422 48.3135 31.2435 48.2495 30.8808C48.1855 30.5182 48.1535 30.1235 48.1535 29.6968V18.4968C48.1535 18.0702 48.1855 17.6862 48.2495 17.3448C48.3349 16.9822 48.5482 16.6942 48.8895 16.4808C49.2309 16.2462 49.7962 16.1288 50.5855 16.1288C51.3749 16.1288 51.9509 16.2888 52.3135 16.6088C52.6762 16.9075 52.8575 17.4088 52.8575 18.1128L52.4415 18.4648C52.4842 18.3582 52.6122 18.1768 52.8255 17.9208C53.0389 17.6648 53.3162 17.3982 53.6575 17.1208C53.9989 16.8435 54.3935 16.6088 54.8415 16.4168C55.3109 16.2035 55.8122 16.0968 56.3455 16.0968C57.0495 16.0968 57.6789 16.2035 58.2335 16.4168C58.8095 16.6088 59.3215 16.9075 59.7695 17.3128C60.2389 17.6968 60.6442 18.1875 60.9855 18.7848C61.2842 18.3582 61.6469 17.9422 62.0735 17.5368C62.5002 17.1315 63.0015 16.7902 63.5775 16.5128C64.1749 16.2355 64.8362 16.0968 65.5615 16.0968C66.7989 16.0968 67.8442 16.4168 68.6975 17.0568C69.5722 17.6755 70.2335 18.5715 70.6815 19.7448C71.1295 20.9182 71.3535 22.3368 71.3535 24.0008V29.7288C71.3535 30.1342 71.3109 30.5288 71.2255 30.9128C71.1615 31.2755 70.9589 31.5742 70.6175 31.8088C70.2762 32.0222 69.7109 32.1288 68.9215 32.1288C68.1322 32.1288 67.5669 32.0115 67.2255 31.7768C66.9055 31.5422 66.7029 31.2435 66.6175 30.8808C66.5535 30.4968 66.5215 30.1022 66.5215 29.6968V23.9688C66.5215 23.3075 66.4469 22.7528 66.2975 22.3048C66.1482 21.8568 65.9135 21.5155 65.5935 21.2808C65.2949 21.0248 64.9109 20.8968 64.4415 20.8968C63.9509 20.8968 63.5349 21.0142 63.1935 21.2488C62.8522 21.4622 62.5962 21.8035 62.4255 22.2728C62.2549 22.7208 62.1695 23.2968 62.1695 24.0008V29.7288C62.1695 30.1555 62.1162 30.5608 62.0095 30.9448C61.9029 31.3075 61.6682 31.6062 61.3055 31.8408C60.9642 32.0542 60.4095 32.1502 59.6415 32.1288C58.8735 32.1075 58.3295 31.9795 58.0095 31.7448C57.6895 31.5102 57.4975 31.2115 57.4335 30.8488C57.3695 30.4648 57.3375 30.0808 57.3375 29.6968V23.9688C57.3375 23.3075 57.2629 22.7528 57.1135 22.3048C56.9642 21.8355 56.7402 21.4835 56.4415 21.2488C56.1429 21.0142 55.7482 20.8968 55.2575 20.8968C54.7242 20.8968 54.2869 21.0355 53.9455 21.3128C53.6042 21.5902 53.3482 21.9635 53.1775 22.4328C53.0282 22.8808 52.9535 23.3928 52.9535 23.9688V29.7288C52.9535 30.1555 52.9109 30.5502 52.8255 30.9128C52.7615 31.2755 52.5589 31.5742 52.2175 31.8088C51.8762 32.0222 51.3109 32.1288 50.5215 32.1288ZM81.809 32.4168C80.3157 32.4168 79.025 32.1715 77.937 31.6808C76.8704 31.1902 75.9957 30.5502 75.313 29.7608C74.6304 28.9502 74.1184 28.0542 73.777 27.0728C73.457 26.0915 73.297 25.1102 73.297 24.1288C73.297 22.5288 73.6597 21.1102 74.385 19.8728C75.1104 18.6355 76.113 17.6648 77.393 16.9608C78.673 16.2355 80.145 15.8728 81.809 15.8728C83.0464 15.8728 84.113 16.0755 85.009 16.4808C85.9264 16.8648 86.673 17.3768 87.249 18.0168C87.8464 18.6355 88.2837 19.3075 88.561 20.0328C88.8597 20.7582 89.009 21.4515 89.009 22.1128C89.009 23.2862 88.721 24.1608 88.145 24.7368C87.5904 25.2915 86.8757 25.5688 86.001 25.5688H78.385C78.4277 26.1235 78.6197 26.5928 78.961 26.9768C79.3237 27.3608 79.7717 27.6595 80.305 27.8728C80.8384 28.0862 81.4037 28.1928 82.001 28.1928C82.513 28.1928 82.961 28.1715 83.345 28.1288C83.729 28.0648 84.0597 27.9902 84.337 27.9048C84.6144 27.7982 84.8704 27.7022 85.105 27.6168C85.3397 27.5102 85.5424 27.4248 85.713 27.3608C85.905 27.2968 86.0864 27.2542 86.257 27.2328C86.577 27.2115 86.865 27.3075 87.121 27.5208C87.3984 27.7128 87.6437 28.0115 87.857 28.4168C88.0064 28.6515 88.1024 28.8755 88.145 29.0888C88.209 29.3022 88.241 29.5155 88.241 29.7288C88.241 30.2408 87.9744 30.6995 87.441 31.1048C86.929 31.5102 86.193 31.8302 85.233 32.0648C84.2944 32.2995 83.153 32.4168 81.809 32.4168ZM78.385 22.9448H83.441C83.7824 22.9448 84.0277 22.8915 84.177 22.7848C84.3477 22.6568 84.433 22.4222 84.433 22.0808C84.433 21.6968 84.3157 21.3662 84.081 21.0888C83.8464 20.7902 83.5264 20.5662 83.121 20.4168C82.737 20.2462 82.289 20.1608 81.777 20.1608C81.1157 20.1608 80.529 20.2888 80.017 20.5448C79.505 20.8008 79.0997 21.1422 78.801 21.5688C78.5237 21.9955 78.385 22.4542 78.385 22.9448ZM93.6205 32.1288C92.8312 32.1288 92.2659 32.0222 91.9245 31.8088C91.6045 31.5742 91.4019 31.2755 91.3165 30.9128C91.2525 30.5288 91.2205 30.1342 91.2205 29.7288V18.5608C91.2205 18.1342 91.2525 17.7395 91.3165 17.3768C91.4019 17.0142 91.6152 16.7262 91.9565 16.5128C92.2979 16.2782 92.8632 16.1608 93.6525 16.1608C94.4205 16.1608 94.9645 16.2782 95.2845 16.5128C95.6259 16.7475 95.8285 17.0462 95.8925 17.4088C95.9779 17.7715 96.0205 18.1768 96.0205 18.6248V29.7608C96.0205 30.1662 95.9779 30.5608 95.8925 30.9448C95.8285 31.3075 95.6259 31.5955 95.2845 31.8088C94.9645 32.0222 94.4099 32.1288 93.6205 32.1288ZM93.6205 13.8248C92.8099 13.8248 92.2339 13.7075 91.8925 13.4728C91.5512 13.2382 91.3379 12.9288 91.2525 12.5448C91.1885 12.1608 91.1565 11.7555 91.1565 11.3288C91.1565 10.8808 91.1992 10.4755 91.2845 10.1128C91.3699 9.72882 91.5832 9.43015 91.9245 9.21682C92.2659 8.98215 92.8419 8.86482 93.6525 8.86482C94.4419 8.86482 95.0072 8.98215 95.3485 9.21682C95.6899 9.45149 95.8925 9.76082 95.9565 10.1448C96.0419 10.5288 96.0845 10.9342 96.0845 11.3608C96.0845 11.7875 96.0419 12.1928 95.9565 12.5768C95.8925 12.9608 95.6899 13.2702 95.3485 13.5048C95.0072 13.7182 94.4312 13.8248 93.6205 13.8248ZM101.211 32.0968C100.421 32.0968 99.8559 31.9902 99.5145 31.7768C99.1945 31.5422 98.9919 31.2435 98.9065 30.8808C98.8425 30.4968 98.8105 30.1022 98.8105 29.6968V18.4328C98.8105 18.0275 98.8532 17.6542 98.9385 17.3128C99.0239 16.9502 99.2265 16.6622 99.5465 16.4488C99.8879 16.2355 100.453 16.1288 101.243 16.1288C101.925 16.1288 102.427 16.2248 102.747 16.4168C103.067 16.5875 103.269 16.8008 103.355 17.0568C103.461 17.3128 103.515 17.5582 103.515 17.7928C103.515 18.0062 103.536 18.1555 103.579 18.2408L103.387 18.8488C103.429 18.5288 103.589 18.2088 103.867 17.8888C104.165 17.5475 104.528 17.2488 104.955 16.9928C105.403 16.7155 105.872 16.5022 106.363 16.3528C106.875 16.2035 107.376 16.1288 107.867 16.1288C108.891 16.1288 109.797 16.3208 110.587 16.7048C111.397 17.0675 112.08 17.6008 112.635 18.3048C113.189 19.0088 113.605 19.8408 113.883 20.8008C114.181 21.7395 114.331 22.7742 114.331 23.9048V29.7288C114.331 30.1342 114.288 30.5288 114.203 30.9128C114.139 31.2755 113.936 31.5635 113.595 31.7768C113.275 31.9902 112.72 32.0968 111.931 32.0968C111.12 32.0968 110.544 31.9902 110.203 31.7768C109.883 31.5422 109.68 31.2435 109.595 30.8808C109.509 30.4968 109.467 30.1022 109.467 29.6968V23.9048C109.467 23.2648 109.36 22.7208 109.147 22.2728C108.933 21.8248 108.613 21.4835 108.187 21.2488C107.76 20.9928 107.237 20.8648 106.619 20.8648C106 20.8648 105.467 20.9928 105.019 21.2488C104.571 21.5048 104.219 21.8568 103.963 22.3048C103.728 22.7528 103.611 23.2862 103.611 23.9048V29.7288C103.611 30.1342 103.568 30.5288 103.483 30.9128C103.419 31.2755 103.216 31.5635 102.875 31.7768C102.555 31.9902 102 32.0968 101.211 32.0968Z" fill="#FF6719"/>
<path fill-rule="evenodd" clip-rule="evenodd" d="M109.201 12.6299C114.286 12.6299 117.201 9.71483 117.201 4.62988C117.201 9.71483 120.116 12.6299 125.201 12.6299C120.116 12.6299 117.201 15.5449 117.201 20.6299C117.201 15.5449 114.286 12.6299 109.201 12.6299Z" fill="#FF6719"/>
</svg>
