<svg width="110" height="45" viewBox="0 0 110 45" fill="none" xmlns="http://www.w3.org/2000/svg">
<path d="M47.7 34.0211C47.0387 34.0211 46.5267 33.8398 46.164 33.4771C45.8227 33.0931 45.652 32.5705 45.652 31.9091V14.6291H39.412C38.8574 14.6291 38.42 14.4798 38.1 14.1811C37.8014 13.8611 37.652 13.4345 37.652 12.9011C37.652 12.3465 37.8014 11.9305 38.1 11.6531C38.42 11.3545 38.8574 11.2051 39.412 11.2051H55.988C56.5427 11.2051 56.9694 11.3545 57.268 11.6531C57.588 11.9305 57.748 12.3465 57.748 12.9011C57.748 13.4345 57.588 13.8611 57.268 14.1811C56.9694 14.4798 56.5427 14.6291 55.988 14.6291H49.748V31.9091C49.748 32.5705 49.5774 33.0931 49.236 33.4771C48.8947 33.8398 48.3827 34.0211 47.7 34.0211ZM62.355 34.0851C61.2244 34.0851 60.211 33.8718 59.315 33.4451C58.4404 32.9971 57.747 32.3998 57.235 31.6531C56.7444 30.9065 56.499 30.0638 56.499 29.1251C56.499 27.9731 56.7977 27.0665 57.395 26.4051C57.9924 25.7225 58.963 25.2318 60.307 24.9331C61.651 24.6345 63.4537 24.4851 65.715 24.4851H67.315V26.7891H65.747C64.4244 26.7891 63.3684 26.8531 62.579 26.9811C61.7897 27.1091 61.2244 27.3331 60.883 27.6531C60.563 27.9518 60.403 28.3785 60.403 28.9331C60.403 29.6371 60.6484 30.2131 61.139 30.6611C61.6297 31.1091 62.3124 31.3331 63.187 31.3331C63.891 31.3331 64.5097 31.1731 65.043 30.8531C65.5977 30.5118 66.035 30.0531 66.355 29.4771C66.675 28.9011 66.835 28.2398 66.835 27.4931V23.8131C66.835 22.7465 66.6004 21.9785 66.131 21.5091C65.6617 21.0398 64.8724 20.8051 63.763 20.8051C63.1444 20.8051 62.4724 20.8798 61.747 21.0291C61.043 21.1785 60.2964 21.4345 59.507 21.7971C59.1017 21.9891 58.739 22.0425 58.419 21.9571C58.1204 21.8718 57.8857 21.7011 57.715 21.4451C57.5444 21.1678 57.459 20.8691 57.459 20.5491C57.459 20.2291 57.5444 19.9198 57.715 19.6211C57.8857 19.3011 58.1737 19.0665 58.579 18.9171C59.5604 18.5118 60.499 18.2238 61.395 18.0531C62.3124 17.8825 63.1444 17.7971 63.891 17.7971C65.427 17.7971 66.6857 18.0318 67.667 18.5011C68.6697 18.9705 69.4164 19.6851 69.907 20.6451C70.3977 21.5838 70.643 22.7998 70.643 24.2931V31.9731C70.643 32.6345 70.483 33.1465 70.163 33.5091C69.843 33.8505 69.3844 34.0211 68.787 34.0211C68.1897 34.0211 67.7204 33.8505 67.379 33.5091C67.059 33.1465 66.899 32.6345 66.899 31.9731V30.4371H67.155C67.0057 31.1838 66.707 31.8345 66.259 32.3891C65.8324 32.9225 65.2884 33.3385 64.627 33.6371C63.9657 33.9358 63.2084 34.0851 62.355 34.0851ZM80.047 34.0851C78.2764 34.0851 76.943 33.5838 76.047 32.5811C75.151 31.5571 74.703 30.0638 74.703 28.1011V12.9651C74.703 12.3038 74.8737 11.8025 75.215 11.4611C75.5564 11.1198 76.047 10.9491 76.687 10.9491C77.327 10.9491 77.8177 11.1198 78.159 11.4611C78.5217 11.8025 78.703 12.3038 78.703 12.9651V27.9091C78.703 28.8905 78.9057 29.6158 79.311 30.0851C79.7377 30.5545 80.335 30.7891 81.103 30.7891C81.2737 30.7891 81.4337 30.7891 81.583 30.7891C81.7324 30.7678 81.8817 30.7465 82.031 30.7251C82.3297 30.6825 82.5324 30.7678 82.639 30.9811C82.7457 31.1731 82.799 31.5785 82.799 32.1971C82.799 32.7305 82.6924 33.1465 82.479 33.4451C82.2657 33.7438 81.9137 33.9251 81.423 33.9891C81.2097 34.0105 80.9857 34.0318 80.751 34.0531C80.5164 34.0745 80.2817 34.0851 80.047 34.0851ZM90.2658 34.0851C88.4951 34.0851 87.1618 33.5838 86.2658 32.5811C85.3698 31.5571 84.9218 30.0638 84.9218 28.1011V12.9651C84.9218 12.3038 85.0925 11.8025 85.4338 11.4611C85.7751 11.1198 86.2658 10.9491 86.9058 10.9491C87.5458 10.9491 88.0365 11.1198 88.3778 11.4611C88.7405 11.8025 88.9218 12.3038 88.9218 12.9651V27.9091C88.9218 28.8905 89.1245 29.6158 89.5298 30.0851C89.9565 30.5545 90.5538 30.7891 91.3218 30.7891C91.4925 30.7891 91.6525 30.7891 91.8018 30.7891C91.9511 30.7678 92.1005 30.7465 92.2498 30.7251C92.5485 30.6825 92.7511 30.7678 92.8578 30.9811C92.9645 31.1731 93.0178 31.5785 93.0178 32.1971C93.0178 32.7305 92.9111 33.1465 92.6978 33.4451C92.4845 33.7438 92.1325 33.9251 91.6418 33.9891C91.4285 34.0105 91.2045 34.0318 90.9698 34.0531C90.7351 34.0745 90.5005 34.0851 90.2658 34.0851ZM98.7023 39.7811C98.233 39.7811 97.849 39.6531 97.5503 39.3971C97.2516 39.1625 97.0703 38.8425 97.0063 38.4371C96.9636 38.0318 97.0383 37.6051 97.2303 37.1571L99.4063 32.3251V33.9891L93.5823 20.5171C93.3903 20.0478 93.3263 19.6105 93.3903 19.2051C93.4543 18.7998 93.6463 18.4798 93.9663 18.2451C94.3076 17.9891 94.7663 17.8611 95.3423 17.8611C95.833 17.8611 96.2276 17.9785 96.5263 18.2131C96.825 18.4265 97.0916 18.8425 97.3263 19.4611L101.646 30.2451H100.686L105.102 19.4291C105.337 18.8318 105.614 18.4265 105.934 18.2131C106.254 17.9785 106.681 17.8611 107.214 17.8611C107.684 17.8611 108.057 17.9891 108.334 18.2451C108.612 18.4798 108.782 18.7998 108.846 19.2051C108.91 19.5891 108.836 20.0158 108.622 20.4851L100.846 38.2451C100.569 38.8425 100.27 39.2478 99.9503 39.4611C99.6303 39.6745 99.2143 39.7811 98.7023 39.7811Z" fill="#131B24"/>
<path d="M32.2734 34.8215C32.2659 34.8635 32.2252 34.8975 32.1826 34.8975H13.3717C9.82448 34.8975 7.45767 32.0672 8.08529 28.5759V28.5759C8.09283 28.534 8.13348 28.5 8.17609 28.5H26.987C30.5342 28.5 32.901 31.3303 32.2734 34.8215V34.8215Z" fill="#2C55D9"/>
<path d="M31.1855 25.8879C31.178 25.9299 31.1373 25.9639 31.0947 25.9639H8.18431C4.63706 25.9639 2.27024 23.1336 2.89786 19.6424V19.6424C2.9054 19.6004 2.94605 19.5664 2.98866 19.5664H25.8991C29.4463 19.5664 31.8131 22.3967 31.1855 25.8879V25.8879Z" fill="#2C55D9"/>
<path d="M27.3222 17.2878C27.3147 17.3298 27.2741 17.3638 27.2314 17.3638H7.25044C3.7032 17.3638 1.33638 14.5335 1.96401 11.0423V11.0423C1.97154 11.0003 2.0122 10.9663 2.05481 10.9663H22.0358C25.5831 10.9663 27.9499 13.7966 27.3222 17.2878V17.2878Z" fill="#2C55D9"/>
</svg>
